<svg width="1200" height="720" viewBox="0 0 1200 720" fill="none" xmlns="http://www.w3.org/2000/svg">
  <rect width="1200" height="720" rx="40" fill="#1A1430"/>
  <rect x="36" y="36" width="1128" height="648" rx="28" fill="url(#cabinet)"/>
  <rect x="236" y="146" width="728" height="430" rx="40" fill="#2D2551" stroke="#6D57A7" stroke-width="8"/>
  <rect x="288" y="198" width="624" height="210" rx="28" fill="#F7FBFA"/>
  <rect x="318" y="228" width="176" height="150" rx="22" fill="#FFF7F0"/>
  <rect x="512" y="228" width="176" height="150" rx="22" fill="#FFF7F0"/>
  <rect x="706" y="228" width="176" height="150" rx="22" fill="#FFF7F0"/>
  <circle cx="406" cy="302" r="42" fill="#F56F63"/>
  <path d="M406 260C428.091 260 446 242.091 446 220C446 197.909 428.091 180 406 180C383.909 180 366 197.909 366 220C366 242.091 383.909 260 406 260Z" fill="#F56F63" fill-opacity="0.5"/>
  <path d="M598 254L628 300L598 346L568 300L598 254Z" fill="#F0C84B"/>
  <path d="M794 252L816 286H854L822 308L834 344L794 322L754 344L766 308L734 286H772L794 252Z" fill="#08A39A"/>
  <rect x="408" y="454" width="384" height="64" rx="24" fill="#F56F63"/>
  <circle cx="922" cy="344" r="42" fill="#F0C84B"/>
  <rect x="910" y="386" width="24" height="118" rx="12" fill="#DADCE2"/>
  <circle cx="922" cy="520" r="34" fill="#F56F63"/>
  <defs>
    <linearGradient id="cabinet" x1="112" y1="84" x2="1088" y2="654" gradientUnits="userSpaceOnUse">
      <stop stop-color="#261F48"/>
      <stop offset="1" stop-color="#17152F"/>
    </linearGradient>
  </defs>
</svg>
