<svg width="1200" height="720" viewBox="0 0 1200 720" fill="none" xmlns="http://www.w3.org/2000/svg">
  <rect width="1200" height="720" rx="40" fill="#0F1720"/>
  <rect x="36" y="36" width="1128" height="648" rx="28" fill="url(#bg)"/>
  <circle cx="228" cy="220" r="98" fill="#F56F63" fill-opacity="0.18"/>
  <circle cx="928" cy="186" r="124" fill="#08A39A" fill-opacity="0.16"/>
  <circle cx="978" cy="540" r="136" fill="#6650A4" fill-opacity="0.18"/>
  <rect x="124" y="130" width="308" height="420" rx="28" fill="#13212B" stroke="#28414B"/>
  <rect x="164" y="172" width="228" height="74" rx="20" fill="#1B303D"/>
  <rect x="164" y="272" width="228" height="34" rx="17" fill="#27495A"/>
  <rect x="164" y="326" width="182" height="34" rx="17" fill="#27495A"/>
  <rect x="164" y="420" width="182" height="82" rx="24" fill="#F56F63"/>
  <circle cx="548" cy="228" r="72" fill="#F1FBF7" fill-opacity="0.12"/>
  <circle cx="742" cy="276" r="92" fill="#F1FBF7" fill-opacity="0.12"/>
  <circle cx="690" cy="430" r="116" fill="#F1FBF7" fill-opacity="0.12"/>
  <path d="M550 255C572.091 255 590 237.091 590 215C590 192.909 572.091 175 550 175C527.909 175 510 192.909 510 215C510 237.091 527.909 255 550 255Z" fill="#F56F63"/>
  <path d="M742 312C767.405 312 788 291.405 788 266C788 240.595 767.405 220 742 220C716.595 220 696 240.595 696 266C696 291.405 716.595 312 742 312Z" fill="#08A39A"/>
  <path d="M688 487C718.928 487 744 461.928 744 431C744 400.072 718.928 375 688 375C657.072 375 632 400.072 632 431C632 461.928 657.072 487 688 487Z" fill="#6650A4"/>
  <rect x="816" y="144" width="228" height="78" rx="22" fill="#13212B" stroke="#28414B"/>
  <rect x="854" y="168" width="152" height="30" rx="15" fill="#F1FBF7" fill-opacity="0.12"/>
  <rect x="770" y="296" width="320" height="222" rx="34" fill="#13212B" stroke="#28414B"/>
  <rect x="806" y="336" width="248" height="62" rx="24" fill="#1C3340"/>
  <rect x="806" y="420" width="170" height="26" rx="13" fill="#27495A"/>
  <rect x="806" y="458" width="202" height="26" rx="13" fill="#27495A"/>
  <defs>
    <linearGradient id="bg" x1="118" y1="78" x2="1112" y2="660" gradientUnits="userSpaceOnUse">
      <stop stop-color="#11202A"/>
      <stop offset="0.52" stop-color="#102833"/>
      <stop offset="1" stop-color="#1B1A34"/>
    </linearGradient>
  </defs>
</svg>
